<?xml version="1.0" encoding="UTF-8" standalone="no"?>
<!DOCTYPE svg PUBLIC "-//W3C//DTD SVG 1.1//EN" "http://www.w3.org/Graphics/SVG/1.1/DTD/svg11.dtd">
<svg id="logo" width="100%" height="100%" viewBox="0 0 978 135" version="1.1" xmlns="http://www.w3.org/2000/svg" xmlns:xlink="http://www.w3.org/1999/xlink">
  <path class="text"
    d="M484.446,134.979C516.619,134.979 532.89,112.976 532.89,68.414C532.89,22.743 516.619,-0 484.446,-0C452.273,-0 436.001,22.743 436.001,68.414C436.001,112.976 452.273,134.979 484.446,134.979ZM0,133.13L50.293,133.13C75.625,133.13 90.047,120.002 90.047,97.074C90.047,76.457 75.348,64.531 49.369,64.161L49.369,63.052C69.523,60.925 80.802,51.126 80.802,35.132C80.802,13.868 65.64,1.849 39.014,1.849L0,1.849L0,133.13ZM331.901,133.13L416.956,133.13L416.956,115.564L353.257,115.564L415.107,19.415L415.107,1.849L331.901,1.849L331.901,19.415L393.289,19.415L331.901,115.564L331.901,133.13ZM110.942,133.13L197.846,133.13L197.846,115.564L129.432,115.564L129.432,1.849L110.942,1.849L110.942,133.13ZM552.86,133.13L571.35,133.13L571.35,83.206L599.548,83.206L623.308,133.13L645.496,133.13L618.408,79.601C632.83,73.591 640.689,60.463 640.689,41.603C640.689,16.271 625.157,1.849 597.976,1.849L552.86,1.849L552.86,133.13ZM211.252,133.13L230.666,133.13L239.264,101.142L285.86,101.142L294.458,133.13L313.873,133.13L275.968,1.849L249.157,1.849L211.252,133.13ZM484.446,117.968C465.123,117.968 455.416,101.512 455.416,68.414C455.416,34.022 465.123,17.011 484.446,17.011C503.768,17.011 513.476,34.022 513.476,68.414C513.476,101.512 503.768,117.968 484.446,117.968ZM18.49,115.564L18.49,72.574L43.637,72.574C60.833,72.574 70.633,80.525 70.633,94.3C70.633,107.798 61.203,115.564 44.931,115.564L18.49,115.564ZM243.979,83.576L261.73,17.751L263.394,17.751L281.145,83.576L243.979,83.576ZM571.35,65.641L571.35,19.415L597.976,19.415C612.676,19.415 621.274,28.105 621.274,43.452C621.274,57.505 612.676,65.641 597.976,65.641L571.35,65.641ZM18.49,55.009L18.49,19.415L38.09,19.415C52.975,19.415 61.388,25.702 61.388,36.981C61.388,48.537 53.344,55.009 39.384,55.009L18.49,55.009Z"
    style="fill:#fff;"/>
  <path class="accent1"
    d="M662.598,133.13L680.396,133.13L680.396,25.205L682.858,25.205L697.816,79.546L714.856,79.546L729.814,25.205L732.276,25.205L732.276,133.13L749.884,133.13L749.884,1.916L722.051,1.916L707.093,58.151L705.579,58.151L690.621,1.916L662.598,1.916L662.598,133.13Z"
    style="fill:#f60;"/>
  <path class="accent2"
    d="M816.898,135.023C844.921,135.023 859.879,120.444 859.879,90.907L859.879,1.916L841.323,1.916L841.323,90.907C841.323,108.515 833.182,117.415 817.277,117.415C800.615,117.415 793.231,108.515 793.231,90.907L793.231,1.916L774.675,1.916L774.675,90.907C774.675,120.444 788.876,135.023 816.898,135.023Z"
    style="fill:#f0f;"/>
  <path class="accent3"
    d="M885.617,133.13L917.426,133.13C957.567,133.13 977.637,111.924 977.637,69.322C977.637,24.069 957.567,1.916 917.426,1.916L885.617,1.916L885.617,133.13ZM904.173,115.521L904.173,19.336L917.426,19.336C944.502,19.336 958.135,35.998 958.135,69.322C958.135,100.184 944.502,115.521 917.426,115.521L904.173,115.521Z"
    style="fill:#6f0;"/>
</svg>
